<svg width="80" height="80" viewBox="0 0 80 80" fill="none" xmlns="http://www.w3.org/2000/svg">
<path d="M0 40C0 17.9086 17.9086 0 40 0C62.0914 0 80 17.9086 80 40C80 62.0914 62.0914 80 40 80C17.9086 80 0 62.0914 0 40Z" fill="#F3F4F6"/>
<path d="M46 43V46.3L48.4 47.8" stroke="#99A1AF" stroke-width="3" stroke-linecap="round" stroke-linejoin="round"/>
<path d="M46 25V31" stroke="#99A1AF" stroke-width="3" stroke-linecap="round" stroke-linejoin="round"/>
<path d="M53.5 33.25V31C53.5 30.2044 53.1839 29.4413 52.6213 28.8787C52.0587 28.3161 51.2956 28 50.5 28H29.5C28.7044 28 27.9413 28.3161 27.3787 28.8787C26.8161 29.4413 26.5 30.2044 26.5 31V52C26.5 52.7956 26.8161 53.5587 27.3787 54.1213C27.9413 54.6839 28.7044 55 29.5 55H34.75" stroke="#99A1AF" stroke-width="3" stroke-linecap="round" stroke-linejoin="round"/>
<path d="M26.5 37H34" stroke="#99A1AF" stroke-width="3" stroke-linecap="round" stroke-linejoin="round"/>
<path d="M34 25V31" stroke="#99A1AF" stroke-width="3" stroke-linecap="round" stroke-linejoin="round"/>
<path d="M46 55C50.9706 55 55 50.9706 55 46C55 41.0294 50.9706 37 46 37C41.0294 37 37 41.0294 37 46C37 50.9706 41.0294 55 46 55Z" stroke="#99A1AF" stroke-width="3" stroke-linecap="round" stroke-linejoin="round"/>
</svg>
