<svg width="40" height="40" viewBox="0 0 40 40" fill="none" xmlns="http://www.w3.org/2000/svg">
<path d="M0 20C0 8.95431 8.95431 0 20 0C31.0457 0 40 8.95431 40 20C40 31.0457 31.0457 40 20 40C8.95431 40 0 31.0457 0 20Z" fill="#EAF2FF"/>
<path d="M20.333 18.61a3.088 3.088 0 1 0-3.088-3.088 3.092 3.092 0 0 0 3.088 3.088zm0-4.926a1.838 1.838 0 1 1-1.838 1.838 1.84 1.84 0 0 1 1.838-1.838zM14.083 20.866a2.375 2.375 0 1 0-2.375-2.375 2.375 2.375 0 0 0 2.375 2.375zm0-3.5a1.125 1.125 0 1 1-1.125 1.125 1.125 1.125 0 0 1 1.125-1.125zM25.833 20.866a2.375 2.375 0 1 0-2.375-2.375 2.375 2.375 0 0 0 2.375 2.375zm0-3.5a1.125 1.125 0 1 1-1.125 1.125 1.125 1.125 0 0 1 1.125-1.125zM25.917 22.119a3.293 3.293 0 0 0-1.566.408 5.148 5.148 0 0 0-4.267-2.398 5.148 5.148 0 0 0-4.267 2.398 3.293 3.293 0 0 0-1.566-.408 3.727 3.727 0 0 0-3.542 3.881.625.625 0 0 0 1.25 0 2.482 2.482 0 0 1 2.292-2.631 2.045 2.045 0 0 1 .986.262 6.303 6.303 0 0 0-.444 2.331.625.625 0 0 0 1.25 0c0-2.528 1.813-4.584 4.042-4.584s4.042 2.056 4.042 4.584a.625.625 0 0 0 1.25 0 6.303 6.303 0 0 0-.444-2.331 2.045 2.045 0 0 1 .986-.262 2.482 2.482 0 0 1 2.292 2.631.625.625 0 0 0 1.25 0 3.727 3.727 0 0 0-3.544-3.881z" fill="#1570EF"/>
</svg>
