<svg xmlns="http://www.w3.org/2000/svg" height="24" viewBox="0 0 64 64" width="24" fill="#1570EF"><path d="m58.25 26.71c-4.88-3.23.35-8-2.38-12-1.87-2.74-6.54-1.81-9-3.17-2-1.9-2.59-6.63-5.78-7.55-3.09-1.15-6.31 2.38-9.09 2.66-2.78-.27-6-3.82-9.12-2.71-3.19.92-3.75 5.64-5.78 7.55-2.43 1.37-7.1.43-9 3.17-2 2.61.32 6.77-.25 9.5-1.2 2.51-5.5 4.5-5.38 7.84-.11 3.34 4.17 5.33 5.38 7.84.57 2.73-1.77 6.89.25 9.5 1.87 2.74 6.54 1.81 9 3.17 3.63 4.8 3.67 10.67 11.6 6.14 2.6-1.63 4-1.62 6.6 0 4.6 2.9 7.8 1.74 9.8-3.27 1.63-5.74 7.66-2.13 10.77-6 2-2.61-.32-6.77.25-9.5a8.1 8.1 0 0 1 2.13-2.55c4.24-3.55 4.27-7.1 0-10.62zm-2.06 8.4c-7.95 6.09 2.7 13.06-6.36 13.58-7.65.52-5.77 5.09-9.64 8.52-2.34.18-5.55-3.07-8.19-2.86-2.64-.21-5.86 3-8.19 2.86-2.06-1.17-2.71-5.74-4.95-7.12-2-1.71-6.55-.94-8.3-2.51-1-5 3-7.71-2.75-12.47-7.18-5.91 5.73-5.27 2.81-14.95-.26-1.44-.55-3.06-.06-3.74 4.47-2.57 8.23.54 11-6.51.75-1.46 1.34-3.1 2.53-3.17 5.1 1.43 6.91 4.93 12.64 1.26 1.26-.68 2.69-1.45 3.46-1.2 2.06 1.17 2.71 5.74 5 7.12 2 1.71 6.55.94 8.3 2.51.49.68.2 2.3-.06 3.74-2.97 9.68 9.94 9.03 2.76 14.94z"/><path d="m43.93 24.64h-2.37a10.74 10.74 0 0 0 1.44-5.22c.23-3.75-5.24-5.74-7.1-2.2a22.62 22.62 0 0 1 -7.9 8.47 1.5 1.5 0 0 0 -1.42-1.05h-7.58a1.5 1.5 0 0 0 -1.5 1.5v17a1.5 1.5 0 0 0 1.5 1.5h4.3a4.69 4.69 0 0 0 4.41-2.64 56.78 56.78 0 0 0 14 1.76 4.59 4.59 0 0 0 4.51-3.61l2.19-9.84a4.66 4.66 0 0 0 -4.48-5.67zm-20.63 17h-2.85v-14h4.65v12.47a1.6 1.6 0 0 1 -1.8 1.53zm22.21-12-2.19 9.84a1.61 1.61 0 0 1 -1.58 1.26 53.73 53.73 0 0 1 -13.64-1.74v-9.87a25.64 25.64 0 0 0 10.39-10.48c.24-.67 1.55-.06 1.47.67-.06 1.9-.69 4.24-2.3 5.14a1.7 1.7 0 0 0 -1 1.75 1.49 1.49 0 0 0 1.5 1.43h5.8a1.64 1.64 0 0 1 1.55 1.97z"/></svg>
